<svg xmlns="http://www.w3.org/2000/svg" viewBox="340 100 345 820" fill="#00C853">
<g transform="translate(0,1024) scale(0.1,-0.1)">
<path d="M5018 8959 c-147 -20 -296 -96 -408 -208 -87 -88 -140 -173 -177 -286 -23 -69 -27 -98 -27 -210 -1 -149 13 -216 70 -331 91 -185 276 -332 476 -379 81 -19 255 -19 336 0 200 47 385 194 476 379 57 115 71 182 70 331 0 112 -4 141 -27 210 -38 115 -91 199 -182 290 -65 65 -99 90 -175 128 -52 26 -120 53 -150 61 -77 19 -203 26 -282 15z"/>
<path d="M4490 7364 c-73 -8 -224 -47 -292 -75 -337 -139 -588 -460 -638 -814 -8 -56 -10 -411 -8 -1190 l3 -1110 27 -47 c99 -168 309 -198 444 -64 90 90 84 12 84 1183 l0 1024 25 24 c29 30 55 32 86 6 l24 -19 5 -2354 c5 -2316 5 -2354 25 -2401 101 -245 395 -328 607 -172 53 39 101 105 132 179 21 51 21 55 24 1487 l2 1436 25 23 c32 30 78 30 110 0 l25 -23 0 -1403 c0 -988 3 -1419 11 -1456 24 -117 110 -230 213 -282 195 -99 439 -11 534 192 l27 57 5 2358 5 2359 24 19 c29 24 53 24 82 0 l24 -19 5 -1044 5 -1043 28 -57 c62 -126 194 -183 331 -144 66 20 135 77 169 141 l22 40 3 1110 c2 779 0 1134 -8 1190 -22 154 -98 339 -193 465 -154 206 -349 335 -607 402 -83 21 -101 22 -720 24 -349 1 -651 0 -670 -2z"/>
</g>
</svg>
